@startuml
class com.feriantes4dawin.feriavirtualmovil.data.models.OfertaSubastaProductor {
+ Integer id_proceso
+ Integer unidades_producto
+ Producto producto
+ TipoVenta tipo_venta
}
class com.feriantes4dawin.feriavirtualmovil.data.datasources.remote.VentaRemoteDataSource {
+ VentaAPIService ventaAPI
+ <<Create>> VentaRemoteDataSource(VentaAPIService)
}
class com.feriantes4dawin.feriavirtualmovil.data.models.EstadoContrato {
+ Integer id_estado_contrato
+ String descripcion
}
class com.feriantes4dawin.feriavirtualmovil.data.models.ResultadoUsuario {
+ String token_usuario
+ Usuario usuario
}
class com.feriantes4dawin.feriavirtualmovil.data.models.DetalleVenta {
+ Integer secret_id_venta
+ Venta venta
+ List<Producto> productos
}
class com.feriantes4dawin.feriavirtualmovil.util.FeriaVirtualConstants {
+ {static} String URL_BASE_API_WEB_FERIAVIRTUAL
+ {static} String NOMBRE_BASE_DATOS
+ {static} String SP_FERIAVIRTUAL_WEBAPI_AUTH_TOKEN
+ {static} String FERIAVIRTUAL_MOVIL_SHARED_PREFERENCES
+ {static} String SP_USUARIO_ID
+ {static} String SP_USUARIO_OBJ_STR
+ {static} String SP_VENTA_ID
+ {static} String SP_VENTA_OBJ_STR
+ {static} String SP_DETALLE_PUJA_PROD_STR
+ {static} String MODO_SOLO_LECTURA
+ {static} int CURRENT_LOGGED_USUARIO
+ {static} String FRAGMENTO_LISTA_PETICIONES_VENTA
+ {static} String FRAGMENTO_MI_PERFIL
+ {static} String FRAGMENTO_MIS_PROCESOS
+ {static} String FRAGMENTO_INICIO
+ {static} String CODIGO_ACCION
+ {static} String RESULTADO_ACCION
+ {static} String ID_CODIGO_ERROR
+ {static} int ACCION_AGREGAR_PUJA
+ {static} int ACCION_VISUALIZAR_PUJA
+ {static} int ACCION_MODIFICAR_PUJA
+ {static} int ACCION_REMOVER_PUJA
+ {static} int ACCION_TRANSPORTAR_ENCARGO
+ {static} int ACCION_FINALIZAR_TRANSPORTE
+ {static} int ACCION_ESCOGER_IMAGEN
}
class com.feriantes4dawin.feriavirtualmovil.data.models.ContratoUsuario {
+ Integer id_contrato_usuario
+ String fecha_inicio_contrato
+ String fecha_termino_contrato
+ EstadoContrato estado_contrato
}
class com.feriantes4dawin.feriavirtualmovil.ui.sales.ListItemDetailProductCustomAdapter {
- List<DetallePujaSubastaProductor> productosVenta
- AppCompatActivity activity
- boolean modoSoloLectura
- Gson convertidorJSON
+ <<Create>> ListItemDetailProductCustomAdapter(AppCompatActivity,List<DetallePujaSubastaProductor>)
+ <<Create>> ListItemDetailProductCustomAdapter(AppCompatActivity,List<DetallePujaSubastaProductor>,boolean,Gson)
+ ListItemDetailProductCustomAdapter.ListItemDetailProductViewHolder onCreateViewHolder(ViewGroup,int)
+ void onBindViewHolder(ListItemDetailProductCustomAdapter.ListItemDetailProductViewHolder,int)
+ int getItemCount()
}
class com.feriantes4dawin.feriavirtualmovil.ui.sales.ListItemDetailProductCustomAdapter.ListItemDetailProductViewHolder {
+ DetallePujaSubastaProductor detalle
+ View contenedor
+ TextView lblNombreProducto
+ TextView lblTipoProducto
+ TextView lblUnidades
+ <<Create>> ListItemDetailProductViewHolder(View)
}
class com.feriantes4dawin.feriavirtualmovil.ui.main.MainActivity {
- AppBarConfiguration appBarConfiguration
- MainViewModel mainViewmodel
- MainViewModelFactory mainViewModelFactory
+ FeriaVirtualComponent feriaVirtualComponent
+ UsuarioRepositoryImpl usuarioRepository
+ Gson convertidorJSON
+ void onCreate(Bundle)
+ boolean onCreateOptionsMenu(Menu)
+ boolean onOptionsItemSelected(MenuItem)
+ boolean onSupportNavigateUp()
+ void onActivityResult(int,int,Intent)
+ void actualizarDatosMenuLateral(Usuario)
+ void cerrarSesion()
}
class com.feriantes4dawin.feriavirtualmovil.ui.widgets.PushTransportistaDialog {
- boolean modoEdicion
- int idMensajeTitulo
+ <<Create>> PushTransportistaDialog(AppCompatActivity,SimpleAction,SimpleAction)
+ <<Create>> PushTransportistaDialog(AppCompatActivity,boolean,SimpleAction,SimpleAction)
# View prepareView()
# void prepareResponses()
}
class com.feriantes4dawin.feriavirtualmovil.ui.auction.PushProductorCustomAdapter {
- ArrayList<Producto> listaProductos
+ <<Create>> PushProductorCustomAdapter()
+ PushProductorViewHolder onCreateViewHolder(ViewGroup,int)
+ void onBindViewHolder(PushProductorViewHolder,int)
+ int getItemCount()
}
class com.feriantes4dawin.feriavirtualmovil.ui.auction.PushProductorCustomAdapter.PushProductorViewHolder {
+ Producto p
+ String id_producto
+ TextView lblNombreProducto
+ TextView lblCantidadProducto
+ TextView lblPrecioPorUnidadProducto
+ CheckBox chkSeleccionado
~ <<Create>> PushProductorViewHolder(View)
+ void limpiarCampos()
}
class com.feriantes4dawin.feriavirtualmovil.data.network.interceptor.ConnectivityInterceptorImpl {
- Context c
+ <<Create>> ConnectivityInterceptorImpl(Context)
+ ConnectivityInterceptorImpl getInstance(Context)
+ Response intercept(Interceptor.Chain)
- boolean isOnline()
}
class com.feriantes4dawin.feriavirtualmovil.ui.auction.PushTransportistaActivity {
# void onCreate(Bundle)
}
class com.feriantes4dawin.feriavirtualmovil.ui.sales.SaleDetailViewModelFactory {
~ VentaRepository ventaRepository
~ SubastaRepository subastaRepository
~ FeriaVirtualApplication feriaVirtualApplication
+ <<Create>> SaleDetailViewModelFactory(VentaRepository,SubastaRepository,FeriaVirtualApplication)
+ T create(Class<T>)
}
class com.feriantes4dawin.feriavirtualmovil.ui.auction.AuctionViewModelFactory {
+ FeriaVirtualApplication aplicacion
+ VentaRepository ventaRepository
+ UsuarioRepository usuarioRepository
+ SubastaRepository subastaRepository
+ Gson convertidorJSON
+ <<Create>> AuctionViewModelFactory(FeriaVirtualApplication,VentaRepository,UsuarioRepository,SubastaRepository,Gson)
+ T create(Class<T>)
}
class com.feriantes4dawin.feriavirtualmovil.util.UtilityFunctions {
+ {static} void getImageFromGallery(AppCompatActivity)
}
class com.feriantes4dawin.feriavirtualmovil.data.Result {
+ String toString()
}
class com.feriantes4dawin.feriavirtualmovil.data.Result.Success {
+ T data
+ <<Create>> Success()
+ <<Create>> Success(T)
}
class com.feriantes4dawin.feriavirtualmovil.data.Result.Error {
+ Exception exception
+ <<Create>> Error()
+ <<Create>> Error(Exception)
}
class com.feriantes4dawin.feriavirtualmovil.ui.profile.MyProfileViewModel {
- UsuarioRepository usuarioRepository
- Gson convertidorJSON
- FeriaVirtualApplication fva
- MutableLiveData<Usuario> datosMutablesUsuario
- LiveData<Usuario> datosUsuario
+ <<Create>> MyProfileViewModel(UsuarioRepository,Gson,FeriaVirtualApplication)
+ LiveData<Usuario> getDatosUsuario()
- void cargarDatosUsuario()
+ void guardarCambiosUsuario(Usuario)
+ void cambiarContrasena(ObjetoModificacionContrasena,SimpleAction)
}
class com.feriantes4dawin.feriavirtualmovil.data.models.Usuarios {
+ List<Usuario> usuarios
}
class com.feriantes4dawin.feriavirtualmovil.ui.widgets.PushDetailProductorDialog {
- String productName
+ <<Create>> PushDetailProductorDialog(AppCompatActivity,String,SimpleAction,SimpleAction)
# View prepareView()
+ AlertDialog generate()
# void prepareResponses()
}
class com.feriantes4dawin.feriavirtualmovil.ui.widgets.PushDetailProductorDialog.ComparadorTextWatcherAdapter {
- EditText txt2
+ <<Create>> ComparadorTextWatcherAdapter(EditText,EditText)
+ void afterTextChanged(Editable)
}
class com.feriantes4dawin.feriavirtualmovil.data.models.Producto {
+ Integer id_producto
+ String nombre
+ Integer cantidad
+ Integer peso
+ Integer volumen
+ Integer estado
+ Integer refrigeracion
+ String fecha_llegada
+ Integer codigo_productor
+ <<Create>> Producto()
+ String toString()
}
class com.feriantes4dawin.feriavirtualmovil.data.network.calladapters.LiveDataCallAdapterFactory {
+ CallAdapter<?,?> get(Type,Annotation[],Retrofit)
}
class com.feriantes4dawin.feriavirtualmovil.ui.sales.SaleDetailActivity {
- SaleDetailViewModel saleDetailViewModel
- SaleDetailViewModelFactory saleDetailViewModelFactory
- FeriaVirtualComponent feriaVirtualComponent
- Integer id_venta
- Usuario usuario
- Venta venta
- boolean modoSoloLectura
- ObservadorAlBorrarProducto observadorAlBorrarProducto
+ VentaRepositoryImpl ventaRepository
+ SubastaRepositoryImpl subastaRepository
+ Gson convertidorJSON
+ void onCreate(Bundle)
+ void actualizarDatosVenta()
# void onActivityResult(int,int,Intent)
+ void onBackPressed()
+ void supportNavigateUpTo(Intent)
- void rellenarDatosVenta(Venta)
- void rellenarListaProductos(DetallesPujaSubastaProductor)
- void prepararListaProductos(RecyclerView)
}
class com.feriantes4dawin.feriavirtualmovil.ui.sales.SaleDetailActivity.ObservadorAlBorrarProducto {
+ void onChanged(DetallesPujaSubastaProductor)
}
class com.feriantes4dawin.feriavirtualmovil.data.network.interceptor.AuthenticationInterceptorImpl {
- Context c
+ <<Create>> AuthenticationInterceptorImpl(Context)
+ AuthenticationInterceptorImpl getInstance(Context)
+ Response intercept(Chain)
}
class com.feriantes4dawin.feriavirtualmovil.data.models.Venta {
+ Integer id_venta
+ String fecha_inicio_venta
+ String fecha_fin_venta
+ String comentarios_venta
+ EstadoVenta estado_venta
}
interface com.feriantes4dawin.feriavirtualmovil.data.db.UsuarioDAO {
~ void upsert(Usuario)
~ Usuario find()
}
class com.feriantes4dawin.feriavirtualmovil.ui.login.LoginResult {
+ LoggedInUserView success
+ Integer error
+ String errorMessage
+ <<Create>> LoginResult()
+ <<Create>> LoginResult(LoggedInUserView,Integer)
+ <<Create>> LoginResult(LoggedInUserView,Integer,String)
}
class com.feriantes4dawin.feriavirtualmovil.data.models.EstadosVenta {
+ List<EstadoVenta> estados_venta
}
class com.feriantes4dawin.feriavirtualmovil.data.models.EstadosContrato {
+ List<EstadoContrato> estados_contrato
}
interface com.feriantes4dawin.feriavirtualmovil.util.SimpleAction {
~ void doAction(Object)
}
class com.feriantes4dawin.feriavirtualmovil.util.SimpleTextWatcherAdapter {
# EditText txt
+ <<Create>> SimpleTextWatcherAdapter(EditText)
+ void beforeTextChanged(CharSequence,int,int,int)
+ void onTextChanged(CharSequence,int,int,int)
+ void afterTextChanged(Editable)
}
class com.feriantes4dawin.feriavirtualmovil.data.models.DetallesPujaSubastaProductor {
+ List<DetallePujaSubastaProductor> pujas
+ <<Create>> DetallesPujaSubastaProductor(List<DetallePujaSubastaProductor>)
}
class com.feriantes4dawin.feriavirtualmovil.data.models.Productos {
+ List<Producto> productos
+ <<Create>> Productos(List<Producto>)
+ <<Create>> Productos()
}
interface com.feriantes4dawin.feriavirtualmovil.data.network.interceptor.AuthenticationInterceptor {
~ Response intercept(Interceptor.Chain)
}
class com.feriantes4dawin.feriavirtualmovil.data.db.ObjetoConverter {
+ String ObjetoAJSON(Object)
+ String ListaAJSON(List<?>)
+ List<Producto> JSONListaProductos(String)
+ List<DetallePujaSubastaProductor> JSONAListaObjetosPujaSubastaProductor(String)
+ ContratoUsuario JSONAContratoUsuario(String)
+ EstadoUsuario JSONAEstadoUsuario(String)
+ EstadoContrato JSONAEstadoContrato(String)
+ EstadoSubasta JSONAEstadoSubasta(String)
+ EstadoVenta JSONAEstadoVenta(String)
+ Producto JSONAProducto(String)
+ Rol JSONARol(String)
+ TipoVenta JSONATipoVenta(String)
+ Usuario JSONAUsuario(String)
+ Venta JSONAVenta(String)
}
interface com.feriantes4dawin.feriavirtualmovil.data.db.SubastaDAO {
~ List<DetalleVenta> getSubastas()
}
interface com.feriantes4dawin.feriavirtualmovil.FeriaVirtualComponent {
~ void injectIntoMyProfileFragment(MyProfileFragment)
~ void injectIntoCurrentSalesFragment(CurrentSalesFragment)
~ void injectIntoMyProcessesFragment(MyProcessesFragment)
~ void injectIntoSaleDetailActivity(SaleDetailActivity)
~ void injectIntoLoginActivity(LoginActivity)
~ void injectIntoMainActivity(MainActivity)
~ void injectIntoAuctionSaleActivity(AuctionSaleActivity)
~ void injectIntoPushProductorActivity(PushProductorActivity)
~ void injectIntoPushTransportistaActivity(PushTransportistaActivity)
~ void injectIntoHomeFragment(HomeFragment)
}
interface com.feriantes4dawin.feriavirtualmovil.data.network.UsuarioAPIService {
~ Call<ResultadoUsuario> login(LoginObject)
~ Call<ResultadoUsuario> getInfoUsuario(Long)
~ Call<ResultadoID> updateUsuario(Long,Usuario)
~ Call<ResultadoID> changePasswordUsuario(Long,ObjetoModificacionContrasena)
}
class com.feriantes4dawin.feriavirtualmovil.data.datasources.local.FeriaVirtualDBProvider {
- FeriaVirtualApplication fva
+ <<Create>> FeriaVirtualDBProvider(FeriaVirtualApplication)
+ UsuarioDAO provideUsuarioDAO()
+ VentaDAO provideVentaDAO()
+ SubastaDAO provideSubastaDAO()
}
class com.feriantes4dawin.feriavirtualmovil.data.models.Ventas {
+ List<Venta> ventas
}
class com.feriantes4dawin.feriavirtualmovil.ui.widgets.ChangePasswordDialog {
- String passwdString
+ <<Create>> ChangePasswordDialog(AppCompatActivity,SimpleAction,SimpleAction)
+ String getPasswdString()
# View prepareView()
+ AlertDialog generate()
# void prepareResponses()
}
class com.feriantes4dawin.feriavirtualmovil.ui.widgets.ChangePasswordDialog.ChangePasswordTextWatcherAdapter {
- EditText txtPasswd2
+ <<Create>> ChangePasswordTextWatcherAdapter(EditText,EditText)
+ void afterTextChanged(Editable)
- boolean isPasswdValid(Editable)
}
interface com.feriantes4dawin.feriavirtualmovil.data.network.VentaAPIService {
~ Call<Ventas> getVentasDisponiblesProductores()
~ Call<Ventas> getVentasDisponiblesTransportistas()
~ Call<Ventas> getVentasDisponibles()
~ Call<Ventas> getHistorialVentas()
~ Call<DetalleVenta> getDetalleVenta(Integer)
~ Call<Venta> getInfoVenta(Integer)
}
class com.feriantes4dawin.feriavirtualmovil.data.models.Rol {
+ Integer id_rol
+ String descripcion
+ {static} Rol ADMINISTRADOR
+ {static} Rol PRODUCTOR
+ {static} Rol TRANSPORTISTA
+ {static} Rol CLIENTE
+ {static} Rol ESTADISTA
+ <<Create>> Rol()
+ <<Create>> Rol(Integer,String)
+ boolean equalsValues(Rol)
}
class com.feriantes4dawin.feriavirtualmovil.ui.profile.MyProfileViewModelFactory {
- UsuarioRepository usuarioRepo
- Gson convertidorJSON
- FeriaVirtualApplication fva
+ <<Create>> MyProfileViewModelFactory(UsuarioRepository,Gson,FeriaVirtualApplication)
+ T create(Class<T>)
}
class com.feriantes4dawin.feriavirtualmovil.ui.login.LoginViewModelFactory {
- UsuarioRepository usuarioRepository
- Gson convertidorJSON
- FeriaVirtualApplication fva
+ <<Create>> LoginViewModelFactory(UsuarioRepository,Gson,FeriaVirtualApplication)
+ T create(Class<T>)
}
interface com.feriantes4dawin.feriavirtualmovil.data.repos.SubastaRepository {
~ Call<ResultadoID> pujarProductoSubastaProductor(Integer,DetallePujaSubastaProductor)
~ Call<ResultadoID> modificarPujaProductor(Integer,DetallePujaSubastaProductor)
~ Call<Productos> getProductosProductor(Integer)
~ Call<DetallesPujaSubastaProductor> removerPujaProductor(Integer,Integer)
~ Call<DetallesPujaSubastaProductor> getProductosSubasta(Integer,Integer)
~ Call<DetallesPujaSubastaProductor> getTodosLosProductosSubasta(Integer)
~ Call<ResultadoID> transportarEncargoProductos(Integer)
~ Call<ResultadoID> finalizarEncargoProductos(Integer)
}
class com.feriantes4dawin.feriavirtualmovil.data.datasources.local.SubastaLocalDataSource {
+ SubastaDAO subastaDAO
+ <<Create>> SubastaLocalDataSource(SubastaDAO)
}
class com.feriantes4dawin.feriavirtualmovil.data.models.EstadosUsuario {
+ List<EstadoUsuario> estados_usuario
}
class com.feriantes4dawin.feriavirtualmovil.ui.main.MainViewModel {
- UsuarioRepository usuarioRepository
- Gson convertidorJSON
- FeriaVirtualApplication feriaVirtualApplication
- LiveData<Usuario> datosUsuario
- MutableLiveData<Usuario> datosMutablesUsuario
+ <<Create>> MainViewModel(UsuarioRepository,Gson,FeriaVirtualApplication)
+ LiveData<Usuario> getDatosUsuario()
- void cargarDatosUsuario()
}
class com.feriantes4dawin.feriavirtualmovil.ui.main.MainViewModelFactory {
- UsuarioRepository usuarioRepository
- Gson convertidorJSON
- FeriaVirtualApplication feriaVirtualApplication
+ <<Create>> MainViewModelFactory(UsuarioRepository,Gson,FeriaVirtualApplication)
+ T create(Class<T>)
}
class com.feriantes4dawin.feriavirtualmovil.ui.proccesses.MyProcessesViewModel {
- FeriaVirtualApplication feriaVirtualApplication
- VentaRepository ventaRepository
- LiveData<Ventas> datosVenta
- MutableLiveData<Ventas> datosMutablesVenta
+ <<Create>> MyProcessesViewModel(VentaRepository,FeriaVirtualApplication)
~ LiveData<Ventas> getDatosVenta()
- void obtenerHistorialDeVentas()
}
interface com.feriantes4dawin.feriavirtualmovil.data.network.interceptor.ConnectivityInterceptor {
~ Response intercept(Interceptor.Chain)
}
class com.feriantes4dawin.feriavirtualmovil.ui.login.LoggedInUserView {
+ String displayName
+ <<Create>> LoggedInUserView(String)
+ <<Create>> LoggedInUserView()
}
class com.feriantes4dawin.feriavirtualmovil.data.models.TiposVenta {
+ List<TipoVenta> tipos_venta
}
class com.feriantes4dawin.feriavirtualmovil.data.models.LoggedInUser {
+ String userId
+ String displayName
+ <<Create>> LoggedInUser(String,String)
+ <<Create>> LoggedInUser()
}
class com.feriantes4dawin.feriavirtualmovil.ui.home.HomeFragment {
- HomeViewModel homeViewModel
- FeriaVirtualComponent feriaVirtualComponent
+ Gson convertidorJSON
+ View onCreateView(LayoutInflater,ViewGroup,Bundle)
+ void onAttach(Context)
}
class com.feriantes4dawin.feriavirtualmovil.ui.widgets.PushProductorDialog {
- boolean modoEdicion
- int idMensajeTitulo
+ <<Create>> PushProductorDialog(AppCompatActivity,SimpleAction,SimpleAction)
+ <<Create>> PushProductorDialog(AppCompatActivity,boolean,SimpleAction,SimpleAction)
# View prepareView()
# void prepareResponses()
}
class com.feriantes4dawin.feriavirtualmovil.data.datasources.remote.SubastaRemoteDataSource {
+ SubastaAPIService subastaAPI
+ <<Create>> SubastaRemoteDataSource(SubastaAPIService)
}
class com.feriantes4dawin.feriavirtualmovil.ui.sales.CurrentSalesViewModel {
- VentaRepository ventaRepository
- FeriaVirtualApplication fva
- Gson convertidorJSON
- LiveData<Ventas> datosVenta
- MutableLiveData<Ventas> datosMutablesVenta
+ <<Create>> CurrentSalesViewModel(VentaRepository,FeriaVirtualApplication,Gson)
+ LiveData<Ventas> getDatosVenta(Usuario)
- void cargarListaVentas(Usuario)
}
class com.feriantes4dawin.feriavirtualmovil.data.models.EstadoSubasta {
+ Integer id_estado_venta
+ String descripcion
}
class com.feriantes4dawin.feriavirtualmovil.ui.proccesses.MyProcessesViewModelFactory {
- FeriaVirtualApplication feriaVirtualApplication
- VentaRepository ventaRepository
+ <<Create>> MyProcessesViewModelFactory(VentaRepository,FeriaVirtualApplication)
+ T create(Class<T>)
}
class com.feriantes4dawin.feriavirtualmovil.ui.auction.AuctionViewModel {
+ FeriaVirtualApplication aplicacion
+ VentaRepository ventaRepository
+ UsuarioRepository usuarioRepository
+ SubastaRepository subastaRepository
+ Gson convertidorJSON
+ LiveData<Productos> datosProductos
+ MutableLiveData<Productos> datosMutablesProductos
+ <<Create>> AuctionViewModel(FeriaVirtualApplication,VentaRepository,UsuarioRepository,SubastaRepository,Gson)
+ LiveData<Productos> obtenerProductos(Integer)
- void cargarProductos(Integer)
+ void pujarSubastaProductor(DetallePujaSubastaProductor,SimpleAction)
+ void modificarPujaProductor(DetallePujaSubastaProductor,SimpleAction)
+ void removerPujaProductor(DetallePujaSubastaProductor,SimpleAction)
}
interface com.feriantes4dawin.feriavirtualmovil.data.repos.UsuarioRepository {
~ Call<ResultadoUsuario> loginUsuario(LoginObject)
~ Call<ResultadoUsuario> getInfoUsuario(Usuario)
~ Call<ResultadoID> updateUsuario(Usuario)
~ Call<ResultadoID> changePasswordUsuario(ObjetoModificacionContrasena)
}
class com.feriantes4dawin.feriavirtualmovil.FeriaVirtualApplication {
- FeriaVirtualComponent feriaVirtualComponent
+ void onCreate()
+ FeriaVirtualComponent getFeriaVirtualComponent()
}
class com.feriantes4dawin.feriavirtualmovil.ui.sales.SimpleSaleItemCustomAdapter {
- Ventas ventasSimples
- Gson convertidorJSON
- AppCompatActivity activity
- boolean modoSoloLectura
+ <<Create>> SimpleSaleItemCustomAdapter(AppCompatActivity,Ventas,Gson)
+ <<Create>> SimpleSaleItemCustomAdapter(AppCompatActivity,Ventas,Gson,boolean)
+ SimpleSaleItemViewHolder onCreateViewHolder(ViewGroup,int)
+ void onBindViewHolder(SimpleSaleItemViewHolder,int)
+ int getItemCount()
}
class com.feriantes4dawin.feriavirtualmovil.ui.sales.SimpleSaleItemCustomAdapter.SimpleSaleItemViewHolder {
+ Venta venta
+ TextView lblCodigoVenta
+ TextView lblFechaInicioVenta
+ TextView lblFechaFinVenta
+ TextView lblEstadoVenta
+ TextView lblComentariosVenta
+ <<Create>> SimpleSaleItemViewHolder(View)
}
interface com.feriantes4dawin.feriavirtualmovil.data.network.SubastaAPIService {
~ Call<ResultadoID> pujarSubastaProductor(Integer,DetallePujaSubastaProductor)
~ Call<ResultadoID> modificarPujaProductor(Integer,DetallePujaSubastaProductor)
~ Call<Productos> getProductosProductor(Integer)
~ Call<DetallesPujaSubastaProductor> removerPujaSubastaProductor(Integer,Integer)
~ Call<ResultadoID> removerPujaSubastaTransportista(Integer,Integer)
~ Call<DetallesPujaSubastaProductor> getProductosSubasta(Integer,Integer)
~ Call<DetallesPujaSubastaProductor> getTodosLosProductosSubasta(Integer)
~ Call<ResultadoID> transportarEncargoProductos(Integer)
~ Call<ResultadoID> finalizarEncargoProductos(Integer)
}
class com.feriantes4dawin.feriavirtualmovil.ui.sales.CurrentSalesViewModelFactory {
- VentaRepository ventaRepository
- FeriaVirtualApplication fva
- Gson convertidorJSON
+ <<Create>> CurrentSalesViewModelFactory(VentaRepository,FeriaVirtualApplication,Gson)
+ T create(Class<T>)
}
class com.feriantes4dawin.feriavirtualmovil.ui.login.LoginViewModel {
- UsuarioRepository usuarioRepository
- Gson convertidorJSON
- FeriaVirtualApplication fva
+ LiveData<LoginFormState> loginFormState
+ MutableLiveData<LoginFormState> _loginForm
+ LiveData<LoginResult> loginResult
- MutableLiveData<LoginResult> _loginResult
+ <<Create>> LoginViewModel(UsuarioRepository,Gson,FeriaVirtualApplication)
+ void login(String,String)
+ void loginDataChanged(String,String)
- boolean isUserNameValid(String)
- boolean isPasswordValid(String)
}
class com.feriantes4dawin.feriavirtualmovil.ui.proccesses.MyProcessesFragment {
- MyProcessesViewModelFactory myProcessesViewModelFactory
- MyProcessesViewModel myProcessesViewModel
- FeriaVirtualComponent feriaVirtualComponent
+ VentaRepositoryImpl ventaRepository
+ Gson convertidorJSON
+ View onCreateView(LayoutInflater,ViewGroup,Bundle)
+ void onAttach(Context)
+ void actualizarDatosVista(Ventas)
}
class com.feriantes4dawin.feriavirtualmovil.data.network.calladapters.ApiResponse {
- {static} Pattern LINK_PATTERN
- {static} Pattern PAGE_PATTERN
- {static} String NEXT_LINK
+ int code
+ T body
+ String errorMessage
+ Map<String,String> links
+ <<Create>> ApiResponse(Throwable)
+ <<Create>> ApiResponse(Response<T>)
+ boolean isSuccessful()
+ Integer getNextPage()
}
class com.feriantes4dawin.feriavirtualmovil.ui.auction.PushProductorActivity {
- FeriaVirtualComponent feriaVirtualComponent
+ Gson convertidorJSON
+ SubastaRepositoryImpl subastaRepository
+ VentaRepositoryImpl ventaRepository
- AuctionViewModel auctionViewModel
- AuctionViewModelFactory auctionViewModelFactory
- Integer id_venta
- DetallePujaSubastaProductor detalle
- List<Producto> listaProductos
- Usuario usuario
# void onCreate(Bundle)
+ void configurarDatosEntrada()
+ void finalizarActividad(int,boolean,int)
}
class com.feriantes4dawin.feriavirtualmovil.misc.exceptions.NoConnectionException {
}
class com.feriantes4dawin.feriavirtualmovil.data.models.ObjetoModificacionContrasena {
+ Long id_usuario
+ String contrasena_actual
+ String nueva_contrasena
}
class com.feriantes4dawin.feriavirtualmovil.data.models.EstadoUsuario {
+ Integer id_estado_usuario
+ String descripcion
}
abstract class com.feriantes4dawin.feriavirtualmovil.ui.widgets.SimpleDialog {
# AppCompatActivity act
# SimpleAction positiveResponseFunc
# SimpleAction negativeResponseFunc
# AlertDialog dlg
# View v
+ <<Create>> SimpleDialog(AppCompatActivity,SimpleAction,SimpleAction)
# {abstract}View prepareView()
# {abstract}void prepareResponses()
+ AlertDialog generate()
}
class com.feriantes4dawin.feriavirtualmovil.FeriaVirtualApplicationModule {
- Application application
+ <<Create>> FeriaVirtualApplicationModule(Application)
+ Application getContext()
}
class com.feriantes4dawin.feriavirtualmovil.ui.widgets.SimpleSpinnerArrayAdapter {
- List<T> elementos
- Context context
+ <<Create>> SimpleSpinnerArrayAdapter(Context,List<T>)
+ int getCount()
+ T getItem(int)
+ long getItemId(int)
+ View getView(int,View,ViewGroup)
}
class com.feriantes4dawin.feriavirtualmovil.ui.widgets.YesNoDialog {
- boolean result
- String title
- String message
+ <<Create>> YesNoDialog(AppCompatActivity,String,String,SimpleAction,SimpleAction)
+ boolean getResult()
# View prepareView()
# void prepareResponses()
}
abstract class com.feriantes4dawin.feriavirtualmovil.data.db.FeriaVirtualDatabase {
- {static} FeriaVirtualDatabase feriaVirtualDatabase
- {static} Object LOCK
+ {abstract}UsuarioDAO getUsuarioDAO()
+ {abstract}SubastaDAO getSubastaDAO()
+ {abstract}VentaDAO getVentaDAO()
+ {static} FeriaVirtualDatabase getInstance(Context)
}
class com.feriantes4dawin.feriavirtualmovil.data.models.LoginObject {
+ String email
+ String contrasena
+ <<Create>> LoginObject()
+ <<Create>> LoginObject(String,String)
}
interface com.feriantes4dawin.feriavirtualmovil.data.repos.VentaRepository {
~ Call<Ventas> getVentasDisponibles(Usuario)
~ Call<Venta> getInfoVenta(Integer)
~ Call<DetalleVenta> getDetalleVenta(Integer)
~ Call<TipoVenta> getTiposVenta()
~ Call<Ventas> getHistorialVentas()
~ List<TipoVenta> getTiposVentaLocal()
}
class com.feriantes4dawin.feriavirtualmovil.ui.login.LoginFormState {
+ Integer usernameError
+ Integer passwordError
+ Boolean isDataValid
+ <<Create>> LoginFormState()
+ <<Create>> LoginFormState(Integer,Integer,Boolean)
}
class com.feriantes4dawin.feriavirtualmovil.ui.main.LectorPDFCustomAdapter {
- ArrayList<String> listaProductos
- PdfRenderer lectorPDF
- ParcelFileDescriptor archivoPDF
- Context c
- PdfRenderer.Page paginaActiva
+ <<Create>> LectorPDFCustomAdapter(ParcelFileDescriptor)
+ LectorPDFCustomAdapter.LectorPDFViewHolder onCreateViewHolder(ViewGroup,int)
+ void onBindViewHolder(LectorPDFCustomAdapter.LectorPDFViewHolder,int)
+ int getItemCount()
+ void onDetachedFromRecyclerView(RecyclerView)
}
class com.feriantes4dawin.feriavirtualmovil.ui.main.LectorPDFCustomAdapter.LectorPDFViewHolder {
+ ImageView ivPagina
~ <<Create>> LectorPDFViewHolder(View)
}
class com.feriantes4dawin.feriavirtualmovil.ui.auction.PushListCustomAdapter {
- ArrayList<String> listaElementos
+ <<Create>> PushListCustomAdapter()
+ PushListViewHolder onCreateViewHolder(ViewGroup,int)
+ void onBindViewHolder(PushListViewHolder,int)
+ int getItemCount()
+ void pushItem(String)
}
class com.feriantes4dawin.feriavirtualmovil.ui.auction.PushListCustomAdapter.PushListViewHolder {
+ String id_puja
+ TextView lblNombreUsuario
+ TextView lblFechaPuja
+ TextView lblCosteTotalPuja
+ <<Create>> PushListViewHolder(View)
}
class com.feriantes4dawin.feriavirtualmovil.ui.login.LoginActivity {
- FeriaVirtualComponent feriaVirtualComponent
+ UsuarioRepositoryImpl usuarioRepository
+ Gson convertidorJSON
- LoginViewModel loginViewModel
- LoginViewModelFactory loginViewModelFactory
+ void onCreate(Bundle)
- void updateUiWithUser(LoggedInUserView)
- void showLoginFailed(LoginResult)
+ boolean revisarSiHaySesion(SharedPreferences)
+ void manejarSesion()
}
class com.feriantes4dawin.feriavirtualmovil.ui.sales.CurrentSalesFragment {
- CurrentSalesViewModel currentSalesViewModel
- CurrentSalesViewModelFactory currentSalesViewModelFactory
- FeriaVirtualComponent feriaVirtualComponent
- Usuario usuario
+ VentaRepositoryImpl ventaRepository
+ Gson convertidorJSON
+ View onCreateView(LayoutInflater,ViewGroup,Bundle)
+ void onAttach(Context)
- void rellenarListaVentas(Ventas)
+ void onResume()
}
class com.feriantes4dawin.feriavirtualmovil.ui.profile.MyProfileFragment {
- MyProfileViewModel myProfileViewModel
- MyProfileViewModelFactory myProfileViewModelFactory
- FeriaVirtualComponent feriaVirtualComponent
+ UsuarioRepositoryImpl usuarioRepository
+ Gson convertidorJSON
+ View onCreateView(LayoutInflater,ViewGroup,Bundle)
+ void onViewCreated(View,Bundle)
+ void onAttach(Context)
- void actualizarDatosVista(Usuario)
}
class com.feriantes4dawin.feriavirtualmovil.util.JsonConverterProvider {
+ Gson getJSONParser()
}
class com.feriantes4dawin.feriavirtualmovil.data.datasources.local.VentaLocalDataSource {
+ VentaDAO ventaDAO
+ <<Create>> VentaLocalDataSource(VentaDAO)
}
class com.feriantes4dawin.feriavirtualmovil.ui.main.HelpSectionFragment {
- {static} String nombreArchivo
- float factorDeEscalado
- ScaleGestureDetector detectorDeEscalado
- GestureDetector.SimpleOnGestureListener detectorGestos
- int dedoActivo
- float actualX
- float actualY
- boolean modoZoom
- boolean modoMultitactil
+ void onCreate(Bundle)
+ View onCreateView(LayoutInflater,ViewGroup,Bundle)
+ void onAttach(Context)
}
class com.feriantes4dawin.feriavirtualmovil.ui.home.HomeViewModel {
+ MutableLiveData<String> _text
+ LiveData<String> text
+ <<Create>> HomeViewModel()
}
class com.feriantes4dawin.feriavirtualmovil.data.repos.VentaRepositoryImpl {
+ VentaDAO ventaDAO
+ VentaAPIService ventaAPI
+ <<Create>> VentaRepositoryImpl(VentaDAO,VentaAPIService)
+ Call<TipoVenta> getTiposVenta()
+ List<TipoVenta> getTiposVentaLocal()
+ Call<Ventas> getHistorialVentas()
+ Call<Ventas> getVentasDisponibles(Usuario)
+ Call<Venta> getInfoVenta(Integer)
+ Call<DetalleVenta> getDetalleVenta(Integer)
}
class com.feriantes4dawin.feriavirtualmovil.data.datasources.local.UsuarioLocalDataSource {
+ UsuarioDAO usuarioDAO
+ <<Create>> UsuarioLocalDataSource(UsuarioDAO)
}
class com.feriantes4dawin.feriavirtualmovil.data.datasources.remote.UsuarioRemoteDataSource {
+ UsuarioAPIService usuarioAPI
+ <<Create>> UsuarioRemoteDataSource(UsuarioAPIService)
}
class com.feriantes4dawin.feriavirtualmovil.data.models.ResultadoID {
+ Integer id_resultado
}
class com.feriantes4dawin.feriavirtualmovil.data.datasources.remote.FeriaVirtualAPIProvider {
- FeriaVirtualApplication fva
- Retrofit.Builder apiServiceCreator
+ <<Create>> FeriaVirtualAPIProvider(FeriaVirtualApplication)
+ UsuarioAPIService provideUsuarioAPI()
+ VentaAPIService provideVentaAPI()
+ SubastaAPIService provideSubastaAPI()
- Retrofit.Builder commonAPIBuilder()
}
class com.feriantes4dawin.feriavirtualmovil.ui.sales.SaleDetailViewModel {
- VentaRepository ventaRepository
- SubastaRepository subastaRepository
- FeriaVirtualApplication feriaVirtualApplication
+ LiveData<Venta> datosVenta
- MutableLiveData<Venta> datosMutablesVenta
+ LiveData<DetallesPujaSubastaProductor> datosProductosVenta
- MutableLiveData<DetallesPujaSubastaProductor> datosMutablesProductosVenta
+ <<Create>> SaleDetailViewModel(VentaRepository,SubastaRepository,FeriaVirtualApplication)
+ LiveData<Venta> getDatosVenta(Integer)
+ LiveData<DetallesPujaSubastaProductor> borrarPuja(Integer,Integer,DetallePujaSubastaProductor)
+ LiveData<DetallesPujaSubastaProductor> getProductosVenta(Integer)
+ LiveData<DetallesPujaSubastaProductor> getProductosVenta(Integer,Integer)
+ void finalizarEncargoProductos(Integer,SimpleAction)
+ void transportarEncargoProductos(Integer,SimpleAction)
- void internalGetProductosVenta(Integer,Integer)
- void internalBorrarPuja(Integer,Integer,DetallePujaSubastaProductor)
- void internalGetDatosVenta(Integer)
}
class com.feriantes4dawin.feriavirtualmovil.data.models.EstadoVenta {
+ Integer id_estado_venta
+ String descripcion
+ {static} EstadoVenta CREADO
+ {static} EstadoVenta INICIADO
+ {static} EstadoVenta LLENO
+ {static} EstadoVenta PENDIENTE_TRANPORTISTA
+ {static} EstadoVenta EN_TRANSPORTE
+ {static} EstadoVenta TRANSPORTE_COMPLETADO
+ {static} EstadoVenta FINALIZADO
+ {static} EstadoVenta CANCELADO
+ <<Create>> EstadoVenta(Integer,String)
+ <<Create>> EstadoVenta()
+ boolean equalsValues(EstadoVenta)
}
class com.feriantes4dawin.feriavirtualmovil.data.models.DetallePujaSubastaProductor {
+ Integer p_secret_pk
+ Integer id_detalle
+ Integer id_venta
+ Producto producto
+ Integer cantidad
+ TipoVenta tipo_venta
}
class com.feriantes4dawin.feriavirtualmovil.data.models.EstadosSubasta {
+ List<EstadoSubasta> estados_subasta
}
class com.feriantes4dawin.feriavirtualmovil.ui.auction.AuctionSaleActivity {
- AppBarConfiguration appBarConfiguration
- FeriaVirtualComponent feriaVirtualComponent
- AuctionViewModelFactory auctionViewModelFactory
- AuctionViewModel auctionViewModel
+ Gson convertidorJSON
+ VentaRepositoryImpl ventaRepository
+ UsuarioRepositoryImpl usuarioRepository
+ SubastaRepositoryImpl subastaRepository
- Usuario usuario
# void onCreate(Bundle)
+ void irAPujar(Usuario,boolean)
}
class com.feriantes4dawin.feriavirtualmovil.data.repos.UsuarioRepositoryImpl {
- UsuarioRepository instancia
- UsuarioDAO usuarioDAO
- UsuarioAPIService usuarioAPI
- Usuario usuarioActivo
+ <<Create>> UsuarioRepositoryImpl(UsuarioDAO,UsuarioAPIService)
+ Call<ResultadoUsuario> loginUsuario(LoginObject)
+ Call<ResultadoUsuario> getInfoUsuario(Usuario)
+ Call<ResultadoID> updateUsuario(Usuario)
+ Call<ResultadoID> changePasswordUsuario(ObjetoModificacionContrasena)
- void saveUsuarioToDatabase(Usuario)
- void setLoggedInUser(Usuario)
}
class com.feriantes4dawin.feriavirtualmovil.data.models.Usuario {
+ Integer secret_id_usuario
+ Long id_usuario
+ String nombre
+ String apellido
+ String email
+ String contrasena
+ Rol rol
+ Integer id_productor
+ String toString()
+ String getNombreCompleto()
}
class com.feriantes4dawin.feriavirtualmovil.data.repos.SubastaRepositoryImpl {
+ SubastaDAO subastaDAO
+ SubastaAPIService subastaAPI
+ <<Create>> SubastaRepositoryImpl(SubastaDAO,SubastaAPIService)
+ Call<Productos> getProductosProductor(Integer)
+ Call<ResultadoID> pujarProductoSubastaProductor(Integer,DetallePujaSubastaProductor)
+ Call<ResultadoID> modificarPujaProductor(Integer,DetallePujaSubastaProductor)
+ Call<DetallesPujaSubastaProductor> removerPujaProductor(Integer,Integer)
+ Call<DetallesPujaSubastaProductor> getProductosSubasta(Integer,Integer)
+ Call<DetallesPujaSubastaProductor> getTodosLosProductosSubasta(Integer)
+ Call<ResultadoID> transportarEncargoProductos(Integer)
+ Call<ResultadoID> finalizarEncargoProductos(Integer)
}
class com.feriantes4dawin.feriavirtualmovil.data.models.TipoVenta {
+ Integer id_tipo_venta
+ String descripcion
+ {static} TipoVenta VENTA_INDEFINIDA
+ {static} TipoVenta VENTA_INTERNA
+ {static} TipoVenta VENTA_EXTERNA
+ <<Create>> TipoVenta(Integer,String)
+ <<Create>> TipoVenta()
+ {static} TipoVenta getTipoVentaByID(int)
+ String toString()
}
class com.feriantes4dawin.feriavirtualmovil.data.network.calladapters.LiveDataCallAdapter {
- Type responseType
+ <<Create>> LiveDataCallAdapter(Type)
+ Type responseType()
+ LiveData<ApiResponse<R>> adapt(Call<R>)
}
interface com.feriantes4dawin.feriavirtualmovil.data.db.VentaDAO {
~ void insert(Venta)
~ void borrarVenta(Venta)
~ void modificarVenta(Venta)
~ Venta findVenta(Integer)
}
class com.feriantes4dawin.feriavirtualmovil.ui.widgets.MessageDialog {
- String title
- String message
- EnumMessageType messageType
+ <<Create>> MessageDialog(AppCompatActivity,EnumMessageType,String,String,SimpleAction)
# View prepareView()
# void prepareResponses()
}


com.feriantes4dawin.feriavirtualmovil.ui.sales.Adapter <|-- com.feriantes4dawin.feriavirtualmovil.ui.sales.ListItemDetailProductCustomAdapter
com.feriantes4dawin.feriavirtualmovil.ui.sales.ListItemDetailProductCustomAdapter +.. com.feriantes4dawin.feriavirtualmovil.ui.sales.ListItemDetailProductCustomAdapter.ListItemDetailProductViewHolder
com.feriantes4dawin.feriavirtualmovil.ui.sales.ViewHolder <|-- com.feriantes4dawin.feriavirtualmovil.ui.sales.ListItemDetailProductCustomAdapter.ListItemDetailProductViewHolder
androidx.appcompat.app.AppCompatActivity <|-- com.feriantes4dawin.feriavirtualmovil.ui.main.MainActivity
com.feriantes4dawin.feriavirtualmovil.ui.widgets.SimpleDialog <|-- com.feriantes4dawin.feriavirtualmovil.ui.widgets.PushTransportistaDialog
com.feriantes4dawin.feriavirtualmovil.ui.auction.Adapter <|-- com.feriantes4dawin.feriavirtualmovil.ui.auction.PushProductorCustomAdapter
com.feriantes4dawin.feriavirtualmovil.ui.auction.PushProductorCustomAdapter +.. com.feriantes4dawin.feriavirtualmovil.ui.auction.PushProductorCustomAdapter.PushProductorViewHolder
com.feriantes4dawin.feriavirtualmovil.ui.auction.ViewHolder <|-- com.feriantes4dawin.feriavirtualmovil.ui.auction.PushProductorCustomAdapter.PushProductorViewHolder
com.feriantes4dawin.feriavirtualmovil.data.network.interceptor.ConnectivityInterceptor <|.. com.feriantes4dawin.feriavirtualmovil.data.network.interceptor.ConnectivityInterceptorImpl
androidx.appcompat.app.AppCompatActivity <|-- com.feriantes4dawin.feriavirtualmovil.ui.auction.PushTransportistaActivity
com.feriantes4dawin.feriavirtualmovil.ui.sales.Factory <|.. com.feriantes4dawin.feriavirtualmovil.ui.sales.SaleDetailViewModelFactory
com.feriantes4dawin.feriavirtualmovil.ui.auction.Factory <|.. com.feriantes4dawin.feriavirtualmovil.ui.auction.AuctionViewModelFactory
com.feriantes4dawin.feriavirtualmovil.data.Result +.. com.feriantes4dawin.feriavirtualmovil.data.Result.Success
com.feriantes4dawin.feriavirtualmovil.data.Result <|-- com.feriantes4dawin.feriavirtualmovil.data.Result.Success
com.feriantes4dawin.feriavirtualmovil.data.Result +.. com.feriantes4dawin.feriavirtualmovil.data.Result.Error
com.feriantes4dawin.feriavirtualmovil.data.Result <|-- com.feriantes4dawin.feriavirtualmovil.data.Result.Error
androidx.lifecycle.ViewModel <|-- com.feriantes4dawin.feriavirtualmovil.ui.profile.MyProfileViewModel
com.feriantes4dawin.feriavirtualmovil.ui.widgets.SimpleDialog <|-- com.feriantes4dawin.feriavirtualmovil.ui.widgets.PushDetailProductorDialog
com.feriantes4dawin.feriavirtualmovil.ui.widgets.PushDetailProductorDialog +.. com.feriantes4dawin.feriavirtualmovil.ui.widgets.PushDetailProductorDialog.ComparadorTextWatcherAdapter
com.feriantes4dawin.feriavirtualmovil.ui.widgets.SimpleTextWatcherAdapter <|-- com.feriantes4dawin.feriavirtualmovil.ui.widgets.PushDetailProductorDialog.ComparadorTextWatcherAdapter
com.feriantes4dawin.feriavirtualmovil.data.network.calladapters.Factory <|-- com.feriantes4dawin.feriavirtualmovil.data.network.calladapters.LiveDataCallAdapterFactory
androidx.appcompat.app.AppCompatActivity <|-- com.feriantes4dawin.feriavirtualmovil.ui.sales.SaleDetailActivity
com.feriantes4dawin.feriavirtualmovil.ui.sales.SaleDetailActivity +.. com.feriantes4dawin.feriavirtualmovil.ui.sales.SaleDetailActivity.ObservadorAlBorrarProducto
com.feriantes4dawin.feriavirtualmovil.ui.sales.Observer <|.. com.feriantes4dawin.feriavirtualmovil.ui.sales.SaleDetailActivity.ObservadorAlBorrarProducto
com.feriantes4dawin.feriavirtualmovil.data.network.interceptor.AuthenticationInterceptor <|.. com.feriantes4dawin.feriavirtualmovil.data.network.interceptor.AuthenticationInterceptorImpl
android.text.TextWatcher <|.. com.feriantes4dawin.feriavirtualmovil.util.SimpleTextWatcherAdapter
okhttp3.Interceptor <|-- com.feriantes4dawin.feriavirtualmovil.data.network.interceptor.AuthenticationInterceptor
com.feriantes4dawin.feriavirtualmovil.ui.widgets.SimpleDialog <|-- com.feriantes4dawin.feriavirtualmovil.ui.widgets.ChangePasswordDialog
com.feriantes4dawin.feriavirtualmovil.ui.widgets.ChangePasswordDialog +.. com.feriantes4dawin.feriavirtualmovil.ui.widgets.ChangePasswordDialog.ChangePasswordTextWatcherAdapter
com.feriantes4dawin.feriavirtualmovil.ui.widgets.SimpleTextWatcherAdapter <|-- com.feriantes4dawin.feriavirtualmovil.ui.widgets.ChangePasswordDialog.ChangePasswordTextWatcherAdapter
com.feriantes4dawin.feriavirtualmovil.ui.profile.Factory <|.. com.feriantes4dawin.feriavirtualmovil.ui.profile.MyProfileViewModelFactory
com.feriantes4dawin.feriavirtualmovil.ui.login.Factory <|.. com.feriantes4dawin.feriavirtualmovil.ui.login.LoginViewModelFactory
androidx.lifecycle.ViewModel <|-- com.feriantes4dawin.feriavirtualmovil.ui.main.MainViewModel
com.feriantes4dawin.feriavirtualmovil.ui.main.Factory <|.. com.feriantes4dawin.feriavirtualmovil.ui.main.MainViewModelFactory
androidx.lifecycle.ViewModel <|-- com.feriantes4dawin.feriavirtualmovil.ui.proccesses.MyProcessesViewModel
okhttp3.Interceptor <|-- com.feriantes4dawin.feriavirtualmovil.data.network.interceptor.ConnectivityInterceptor
androidx.fragment.app.Fragment <|-- com.feriantes4dawin.feriavirtualmovil.ui.home.HomeFragment
com.feriantes4dawin.feriavirtualmovil.ui.widgets.SimpleDialog <|-- com.feriantes4dawin.feriavirtualmovil.ui.widgets.PushProductorDialog
androidx.lifecycle.ViewModel <|-- com.feriantes4dawin.feriavirtualmovil.ui.sales.CurrentSalesViewModel
com.feriantes4dawin.feriavirtualmovil.ui.proccesses.Factory <|.. com.feriantes4dawin.feriavirtualmovil.ui.proccesses.MyProcessesViewModelFactory
androidx.lifecycle.ViewModel <|-- com.feriantes4dawin.feriavirtualmovil.ui.auction.AuctionViewModel
android.app.Application <|-- com.feriantes4dawin.feriavirtualmovil.FeriaVirtualApplication
com.feriantes4dawin.feriavirtualmovil.ui.sales.Adapter <|-- com.feriantes4dawin.feriavirtualmovil.ui.sales.SimpleSaleItemCustomAdapter
com.feriantes4dawin.feriavirtualmovil.ui.sales.SimpleSaleItemCustomAdapter +.. com.feriantes4dawin.feriavirtualmovil.ui.sales.SimpleSaleItemCustomAdapter.SimpleSaleItemViewHolder
com.feriantes4dawin.feriavirtualmovil.ui.sales.ViewHolder <|-- com.feriantes4dawin.feriavirtualmovil.ui.sales.SimpleSaleItemCustomAdapter.SimpleSaleItemViewHolder
com.feriantes4dawin.feriavirtualmovil.ui.sales.Factory <|.. com.feriantes4dawin.feriavirtualmovil.ui.sales.CurrentSalesViewModelFactory
androidx.lifecycle.ViewModel <|-- com.feriantes4dawin.feriavirtualmovil.ui.login.LoginViewModel
androidx.fragment.app.Fragment <|-- com.feriantes4dawin.feriavirtualmovil.ui.proccesses.MyProcessesFragment
androidx.appcompat.app.AppCompatActivity <|-- com.feriantes4dawin.feriavirtualmovil.ui.auction.PushProductorActivity
java.io.IOException <|-- com.feriantes4dawin.feriavirtualmovil.misc.exceptions.NoConnectionException
android.widget.BaseAdapter <|-- com.feriantes4dawin.feriavirtualmovil.ui.widgets.SimpleSpinnerArrayAdapter
com.feriantes4dawin.feriavirtualmovil.ui.widgets.SimpleDialog <|-- com.feriantes4dawin.feriavirtualmovil.ui.widgets.YesNoDialog
androidx.room.RoomDatabase <|-- com.feriantes4dawin.feriavirtualmovil.data.db.FeriaVirtualDatabase
com.feriantes4dawin.feriavirtualmovil.ui.main.Adapter <|-- com.feriantes4dawin.feriavirtualmovil.ui.main.LectorPDFCustomAdapter
com.feriantes4dawin.feriavirtualmovil.ui.main.LectorPDFCustomAdapter +.. com.feriantes4dawin.feriavirtualmovil.ui.main.LectorPDFCustomAdapter.LectorPDFViewHolder
com.feriantes4dawin.feriavirtualmovil.ui.main.ViewHolder <|-- com.feriantes4dawin.feriavirtualmovil.ui.main.LectorPDFCustomAdapter.LectorPDFViewHolder
com.feriantes4dawin.feriavirtualmovil.ui.auction.Adapter <|-- com.feriantes4dawin.feriavirtualmovil.ui.auction.PushListCustomAdapter
com.feriantes4dawin.feriavirtualmovil.ui.auction.PushListCustomAdapter +.. com.feriantes4dawin.feriavirtualmovil.ui.auction.PushListCustomAdapter.PushListViewHolder
com.feriantes4dawin.feriavirtualmovil.ui.auction.ViewHolder <|-- com.feriantes4dawin.feriavirtualmovil.ui.auction.PushListCustomAdapter.PushListViewHolder
androidx.appcompat.app.AppCompatActivity <|-- com.feriantes4dawin.feriavirtualmovil.ui.login.LoginActivity
androidx.fragment.app.Fragment <|-- com.feriantes4dawin.feriavirtualmovil.ui.sales.CurrentSalesFragment
androidx.fragment.app.Fragment <|-- com.feriantes4dawin.feriavirtualmovil.ui.profile.MyProfileFragment
androidx.fragment.app.Fragment <|-- com.feriantes4dawin.feriavirtualmovil.ui.main.HelpSectionFragment
androidx.lifecycle.ViewModel <|-- com.feriantes4dawin.feriavirtualmovil.ui.home.HomeViewModel
com.feriantes4dawin.feriavirtualmovil.data.repos.VentaRepository <|.. com.feriantes4dawin.feriavirtualmovil.data.repos.VentaRepositoryImpl
androidx.lifecycle.ViewModel <|-- com.feriantes4dawin.feriavirtualmovil.ui.sales.SaleDetailViewModel
androidx.appcompat.app.AppCompatActivity <|-- com.feriantes4dawin.feriavirtualmovil.ui.auction.AuctionSaleActivity
com.feriantes4dawin.feriavirtualmovil.data.repos.UsuarioRepository <|.. com.feriantes4dawin.feriavirtualmovil.data.repos.UsuarioRepositoryImpl
com.feriantes4dawin.feriavirtualmovil.data.repos.SubastaRepository <|.. com.feriantes4dawin.feriavirtualmovil.data.repos.SubastaRepositoryImpl
retrofit2.CallAdapter <|.. com.feriantes4dawin.feriavirtualmovil.data.network.calladapters.LiveDataCallAdapter
com.feriantes4dawin.feriavirtualmovil.ui.widgets.SimpleDialog <|-- com.feriantes4dawin.feriavirtualmovil.ui.widgets.MessageDialog
@enduml